<mxfile host="65bd71144e">
    <diagram id="C5RBs43oDa-KdzZeNtuy" name="Page-1">
        <mxGraphModel dx="1531" dy="616" grid="1" gridSize="10" guides="1" tooltips="1" connect="1" arrows="1" fold="1" page="1" pageScale="1" pageWidth="1654" pageHeight="1169" math="0" shadow="0">
            <root>
                <mxCell id="WIyWlLk6GJQsqaUBKTNV-0"/>
                <mxCell id="WIyWlLk6GJQsqaUBKTNV-1" parent="WIyWlLk6GJQsqaUBKTNV-0"/>
                <mxCell id="Bw8D9-mf-STMI-rw64IU-5" value="" style="endArrow=classic;shadow=0;strokeWidth=1;rounded=0;endFill=1;edgeStyle=elbowEdgeStyle;elbow=vertical;exitX=1;exitY=0.5;exitDx=0;exitDy=0;entryX=0;entryY=0.5;entryDx=0;entryDy=0;" parent="WIyWlLk6GJQsqaUBKTNV-1" target="zkfFHV4jXpPFQw0GAbJ--2" edge="1">
                    <mxGeometry x="0.5" y="41" relative="1" as="geometry">
                        <mxPoint x="510" y="525" as="sourcePoint"/>
                        <mxPoint x="810" y="598" as="targetPoint"/>
                        <mxPoint x="-40" y="32" as="offset"/>
                        <Array as="points">
                            <mxPoint x="620" y="525"/>
                        </Array>
                    </mxGeometry>
                </mxCell>
                <mxCell id="Bw8D9-mf-STMI-rw64IU-6" value="1" style="resizable=0;align=left;verticalAlign=bottom;labelBackgroundColor=none;fontSize=12;" parent="Bw8D9-mf-STMI-rw64IU-5" connectable="0" vertex="1">
                    <mxGeometry x="-1" relative="1" as="geometry">
                        <mxPoint x="10.14" y="-5.33" as="offset"/>
                    </mxGeometry>
                </mxCell>
                <mxCell id="Bw8D9-mf-STMI-rw64IU-7" value="1..n" style="resizable=0;align=right;verticalAlign=bottom;labelBackgroundColor=none;fontSize=12;" parent="Bw8D9-mf-STMI-rw64IU-5" connectable="0" vertex="1">
                    <mxGeometry x="1" relative="1" as="geometry">
                        <mxPoint x="-9.86" y="-8.86" as="offset"/>
                    </mxGeometry>
                </mxCell>
                <mxCell id="Bw8D9-mf-STMI-rw64IU-8" value="brought into life" style="text;html=1;resizable=0;points=[];;align=center;verticalAlign=middle;labelBackgroundColor=none;rounded=0;shadow=0;strokeWidth=1;fontSize=12;" parent="Bw8D9-mf-STMI-rw64IU-5" vertex="1" connectable="0">
                    <mxGeometry x="0.5" y="49" relative="1" as="geometry">
                        <mxPoint x="-65" y="40.14" as="offset"/>
                    </mxGeometry>
                </mxCell>
                <mxCell id="zkfFHV4jXpPFQw0GAbJ--0" value="Person" style="swimlane;fontStyle=2;align=center;verticalAlign=top;childLayout=stackLayout;horizontal=1;startSize=26;horizontalStack=0;resizeParent=1;resizeLast=0;collapsible=1;marginBottom=0;rounded=0;shadow=0;strokeWidth=1;" parent="WIyWlLk6GJQsqaUBKTNV-1" vertex="1">
                    <mxGeometry x="730" y="460" width="120" height="138" as="geometry">
                        <mxRectangle x="230" y="140" width="160" height="26" as="alternateBounds"/>
                    </mxGeometry>
                </mxCell>
                <mxCell id="zkfFHV4jXpPFQw0GAbJ--1" value="name" style="text;align=left;verticalAlign=top;spacingLeft=4;spacingRight=4;overflow=hidden;rotatable=0;points=[[0,0.5],[1,0.5]];portConstraint=eastwest;" parent="zkfFHV4jXpPFQw0GAbJ--0" vertex="1">
                    <mxGeometry y="26" width="120" height="26" as="geometry"/>
                </mxCell>
                <mxCell id="zkfFHV4jXpPFQw0GAbJ--2" value="definition" style="text;align=left;verticalAlign=top;spacingLeft=4;spacingRight=4;overflow=hidden;rotatable=0;points=[[0,0.5],[1,0.5]];portConstraint=eastwest;rounded=0;shadow=0;html=0;" parent="zkfFHV4jXpPFQw0GAbJ--0" vertex="1">
                    <mxGeometry y="52" width="120" height="26" as="geometry"/>
                </mxCell>
                <mxCell id="zkfFHV4jXpPFQw0GAbJ--3" value="gender" style="text;align=left;verticalAlign=top;spacingLeft=4;spacingRight=4;overflow=hidden;rotatable=0;points=[[0,0.5],[1,0.5]];portConstraint=eastwest;rounded=0;shadow=0;html=0;" parent="zkfFHV4jXpPFQw0GAbJ--0" vertex="1">
                    <mxGeometry y="78" width="120" height="26" as="geometry"/>
                </mxCell>
                <mxCell id="DzP4_-S1DueVoMuGfCK8-1" value="death date" style="text;align=left;verticalAlign=top;spacingLeft=4;spacingRight=4;overflow=hidden;rotatable=0;points=[[0,0.5],[1,0.5]];portConstraint=eastwest;rounded=0;shadow=0;html=0;" parent="zkfFHV4jXpPFQw0GAbJ--0" vertex="1">
                    <mxGeometry y="104" width="120" height="26" as="geometry"/>
                </mxCell>
                <mxCell id="Bw8D9-mf-STMI-rw64IU-0" value="Birth" style="swimlane;fontStyle=2;align=center;verticalAlign=top;childLayout=stackLayout;horizontal=1;startSize=26;horizontalStack=0;resizeParent=1;resizeLast=0;collapsible=1;marginBottom=0;rounded=0;shadow=0;strokeWidth=1;" parent="WIyWlLk6GJQsqaUBKTNV-1" vertex="1">
                    <mxGeometry x="400" y="496.14" width="110" height="60" as="geometry">
                        <mxRectangle x="230" y="140" width="160" height="26" as="alternateBounds"/>
                    </mxGeometry>
                </mxCell>
                <mxCell id="Bw8D9-mf-STMI-rw64IU-1" value="date" style="text;align=left;verticalAlign=top;spacingLeft=4;spacingRight=4;overflow=hidden;rotatable=0;points=[[0,0.5],[1,0.5]];portConstraint=eastwest;" parent="Bw8D9-mf-STMI-rw64IU-0" vertex="1">
                    <mxGeometry y="26" width="110" height="26" as="geometry"/>
                </mxCell>
                <mxCell id="Bw8D9-mf-STMI-rw64IU-53" style="edgeStyle=elbowEdgeStyle;rounded=0;orthogonalLoop=1;jettySize=auto;elbow=vertical;html=1;exitX=0;exitY=0.5;exitDx=0;exitDy=0;" parent="Bw8D9-mf-STMI-rw64IU-0" edge="1">
                    <mxGeometry relative="1" as="geometry">
                        <mxPoint y="65" as="sourcePoint"/>
                        <mxPoint y="65.09090909090901" as="targetPoint"/>
                    </mxGeometry>
                </mxCell>
                <mxCell id="Bw8D9-mf-STMI-rw64IU-9" value="Appellation" style="swimlane;fontStyle=2;align=center;verticalAlign=top;childLayout=stackLayout;horizontal=1;startSize=26;horizontalStack=0;resizeParent=1;resizeLast=0;collapsible=1;marginBottom=0;rounded=0;shadow=0;strokeWidth=1;" parent="WIyWlLk6GJQsqaUBKTNV-1" vertex="1">
                    <mxGeometry x="840" y="240" width="100" height="90" as="geometry">
                        <mxRectangle x="230" y="140" width="160" height="26" as="alternateBounds"/>
                    </mxGeometry>
                </mxCell>
                <mxCell id="Bw8D9-mf-STMI-rw64IU-10" value="name" style="text;align=left;verticalAlign=top;spacingLeft=4;spacingRight=4;overflow=hidden;rotatable=0;points=[[0,0.5],[1,0.5]];portConstraint=eastwest;" parent="Bw8D9-mf-STMI-rw64IU-9" vertex="1">
                    <mxGeometry y="26" width="100" height="26" as="geometry"/>
                </mxCell>
                <mxCell id="Bw8D9-mf-STMI-rw64IU-11" value="definition" style="text;align=left;verticalAlign=top;spacingLeft=4;spacingRight=4;overflow=hidden;rotatable=0;points=[[0,0.5],[1,0.5]];portConstraint=eastwest;rounded=0;shadow=0;html=0;" parent="Bw8D9-mf-STMI-rw64IU-9" vertex="1">
                    <mxGeometry y="52" width="100" height="26" as="geometry"/>
                </mxCell>
                <mxCell id="Bw8D9-mf-STMI-rw64IU-20" value="" style="endArrow=classic;shadow=0;strokeWidth=1;rounded=0;endFill=1;edgeStyle=elbowEdgeStyle;elbow=vertical;exitX=0.457;exitY=0.003;exitDx=0;exitDy=0;exitPerimeter=0;entryX=-0.004;entryY=1.088;entryDx=0;entryDy=0;entryPerimeter=0;" parent="WIyWlLk6GJQsqaUBKTNV-1" source="zkfFHV4jXpPFQw0GAbJ--0" target="Bw8D9-mf-STMI-rw64IU-11" edge="1">
                    <mxGeometry x="0.5" y="41" relative="1" as="geometry">
                        <mxPoint x="520" y="534.9999999999999" as="sourcePoint"/>
                        <mxPoint x="785" y="260" as="targetPoint"/>
                        <mxPoint x="-40" y="32" as="offset"/>
                        <Array as="points">
                            <mxPoint x="785" y="320"/>
                        </Array>
                    </mxGeometry>
                </mxCell>
                <mxCell id="Bw8D9-mf-STMI-rw64IU-21" value="1" style="resizable=0;align=left;verticalAlign=bottom;labelBackgroundColor=none;fontSize=12;" parent="Bw8D9-mf-STMI-rw64IU-20" connectable="0" vertex="1">
                    <mxGeometry x="-1" relative="1" as="geometry">
                        <mxPoint x="10.14" y="-5.33" as="offset"/>
                    </mxGeometry>
                </mxCell>
                <mxCell id="Bw8D9-mf-STMI-rw64IU-22" value="0..n" style="resizable=0;align=right;verticalAlign=bottom;labelBackgroundColor=none;fontSize=12;" parent="Bw8D9-mf-STMI-rw64IU-20" connectable="0" vertex="1">
                    <mxGeometry x="1" relative="1" as="geometry">
                        <mxPoint x="-9.86" y="20" as="offset"/>
                    </mxGeometry>
                </mxCell>
                <mxCell id="Bw8D9-mf-STMI-rw64IU-23" value="has appellation" style="text;html=1;resizable=0;points=[];;align=center;verticalAlign=middle;labelBackgroundColor=none;rounded=0;shadow=0;strokeWidth=1;fontSize=12;" parent="Bw8D9-mf-STMI-rw64IU-20" vertex="1" connectable="0">
                    <mxGeometry x="0.5" y="49" relative="1" as="geometry">
                        <mxPoint x="-25.46" y="40.14" as="offset"/>
                    </mxGeometry>
                </mxCell>
                <mxCell id="Bw8D9-mf-STMI-rw64IU-12" value="Geographical place" style="swimlane;fontStyle=2;align=center;verticalAlign=top;childLayout=stackLayout;horizontal=1;startSize=26;horizontalStack=0;resizeParent=1;resizeLast=0;collapsible=1;marginBottom=0;rounded=0;shadow=0;strokeWidth=1;" parent="WIyWlLk6GJQsqaUBKTNV-1" vertex="1">
                    <mxGeometry x="280" y="200" width="120" height="130" as="geometry">
                        <mxRectangle x="230" y="140" width="160" height="26" as="alternateBounds"/>
                    </mxGeometry>
                </mxCell>
                <mxCell id="Bw8D9-mf-STMI-rw64IU-13" value="name" style="text;align=left;verticalAlign=top;spacingLeft=4;spacingRight=4;overflow=hidden;rotatable=0;points=[[0,0.5],[1,0.5]];portConstraint=eastwest;" parent="Bw8D9-mf-STMI-rw64IU-12" vertex="1">
                    <mxGeometry y="26" width="120" height="26" as="geometry"/>
                </mxCell>
                <mxCell id="Bw8D9-mf-STMI-rw64IU-24" value="longitude" style="text;align=left;verticalAlign=top;spacingLeft=4;spacingRight=4;overflow=hidden;rotatable=0;points=[[0,0.5],[1,0.5]];portConstraint=eastwest;rounded=0;shadow=0;html=0;" parent="Bw8D9-mf-STMI-rw64IU-12" vertex="1">
                    <mxGeometry y="52" width="120" height="26" as="geometry"/>
                </mxCell>
                <mxCell id="Bw8D9-mf-STMI-rw64IU-25" value="latitude" style="text;align=left;verticalAlign=top;spacingLeft=4;spacingRight=4;overflow=hidden;rotatable=0;points=[[0,0.5],[1,0.5]];portConstraint=eastwest;rounded=0;shadow=0;html=0;" parent="Bw8D9-mf-STMI-rw64IU-12" vertex="1">
                    <mxGeometry y="78" width="120" height="26" as="geometry"/>
                </mxCell>
                <mxCell id="121" value="region" style="text;align=left;verticalAlign=top;spacingLeft=4;spacingRight=4;overflow=hidden;rotatable=0;points=[[0,0.5],[1,0.5]];portConstraint=eastwest;rounded=0;shadow=0;html=0;" parent="Bw8D9-mf-STMI-rw64IU-12" vertex="1">
                    <mxGeometry y="104" width="120" height="26" as="geometry"/>
                </mxCell>
                <mxCell id="Bw8D9-mf-STMI-rw64IU-26" value="" style="endArrow=classic;html=1;exitX=1;exitY=0.5;exitDx=0;exitDy=0;" parent="WIyWlLk6GJQsqaUBKTNV-1" edge="1">
                    <mxGeometry x="0.0667" y="-35" relative="1" as="geometry">
                        <mxPoint x="400" y="265" as="sourcePoint"/>
                        <mxPoint x="530" y="265" as="targetPoint"/>
                        <mxPoint as="offset"/>
                    </mxGeometry>
                </mxCell>
                <mxCell id="Bw8D9-mf-STMI-rw64IU-27" value="has type" style="edgeLabel;resizable=0;html=1;align=center;verticalAlign=middle;" parent="Bw8D9-mf-STMI-rw64IU-26" connectable="0" vertex="1">
                    <mxGeometry relative="1" as="geometry"/>
                </mxCell>
                <mxCell id="Bw8D9-mf-STMI-rw64IU-28" value="0..n" style="edgeLabel;resizable=0;html=1;align=left;verticalAlign=bottom;" parent="Bw8D9-mf-STMI-rw64IU-26" connectable="0" vertex="1">
                    <mxGeometry x="-1" relative="1" as="geometry"/>
                </mxCell>
                <mxCell id="Bw8D9-mf-STMI-rw64IU-29" value="1" style="edgeLabel;resizable=0;html=1;align=right;verticalAlign=bottom;" parent="Bw8D9-mf-STMI-rw64IU-26" connectable="0" vertex="1">
                    <mxGeometry x="1" relative="1" as="geometry">
                        <mxPoint x="-10" y="-5" as="offset"/>
                    </mxGeometry>
                </mxCell>
                <mxCell id="Bw8D9-mf-STMI-rw64IU-49" value="" style="endArrow=classic;html=1;entryX=0.002;entryY=0.721;entryDx=0;entryDy=0;entryPerimeter=0;" parent="WIyWlLk6GJQsqaUBKTNV-1" edge="1">
                    <mxGeometry relative="1" as="geometry">
                        <mxPoint x="400" y="530" as="sourcePoint"/>
                        <mxPoint x="280.24" y="270.74599999999987" as="targetPoint"/>
                        <Array as="points">
                            <mxPoint x="240" y="530"/>
                            <mxPoint x="240" y="271"/>
                        </Array>
                    </mxGeometry>
                </mxCell>
                <mxCell id="Bw8D9-mf-STMI-rw64IU-50" value="is located at" style="edgeLabel;resizable=0;html=1;align=center;verticalAlign=middle;" parent="Bw8D9-mf-STMI-rw64IU-49" connectable="0" vertex="1">
                    <mxGeometry relative="1" as="geometry">
                        <mxPoint x="54" y="55.999999999999986" as="offset"/>
                    </mxGeometry>
                </mxCell>
                <mxCell id="Bw8D9-mf-STMI-rw64IU-51" value="1" style="edgeLabel;html=1;align=center;verticalAlign=middle;resizable=0;points=[];" parent="Bw8D9-mf-STMI-rw64IU-49" vertex="1" connectable="0">
                    <mxGeometry x="0.8885" y="-1" relative="1" as="geometry">
                        <mxPoint x="15.55" y="-11.69" as="offset"/>
                    </mxGeometry>
                </mxCell>
                <mxCell id="Bw8D9-mf-STMI-rw64IU-52" value="0..n" style="edgeLabel;html=1;align=center;verticalAlign=middle;resizable=0;points=[];" parent="Bw8D9-mf-STMI-rw64IU-49" vertex="1" connectable="0">
                    <mxGeometry x="-0.8808" y="-1" relative="1" as="geometry">
                        <mxPoint x="-14.14" y="-11" as="offset"/>
                    </mxGeometry>
                </mxCell>
                <mxCell id="Bw8D9-mf-STMI-rw64IU-70" value="Periodical" style="swimlane;fontStyle=2;align=center;verticalAlign=top;childLayout=stackLayout;horizontal=1;startSize=40;horizontalStack=0;resizeParent=1;resizeLast=0;collapsible=1;marginBottom=0;rounded=0;shadow=0;strokeWidth=1;" parent="WIyWlLk6GJQsqaUBKTNV-1" vertex="1">
                    <mxGeometry x="620" y="895" width="120" height="170" as="geometry">
                        <mxRectangle x="230" y="140" width="160" height="26" as="alternateBounds"/>
                    </mxGeometry>
                </mxCell>
                <mxCell id="Bw8D9-mf-STMI-rw64IU-71" value="name" style="text;align=left;verticalAlign=top;spacingLeft=4;spacingRight=4;overflow=hidden;rotatable=0;points=[[0,0.5],[1,0.5]];portConstraint=eastwest;" parent="Bw8D9-mf-STMI-rw64IU-70" vertex="1">
                    <mxGeometry y="40" width="120" height="26" as="geometry"/>
                </mxCell>
                <mxCell id="124" value="type" style="text;align=left;verticalAlign=top;spacingLeft=4;spacingRight=4;overflow=hidden;rotatable=0;points=[[0,0.5],[1,0.5]];portConstraint=eastwest;" parent="Bw8D9-mf-STMI-rw64IU-70" vertex="1">
                    <mxGeometry y="66" width="120" height="26" as="geometry"/>
                </mxCell>
                <mxCell id="125" value="description" style="text;align=left;verticalAlign=top;spacingLeft=4;spacingRight=4;overflow=hidden;rotatable=0;points=[[0,0.5],[1,0.5]];portConstraint=eastwest;" parent="Bw8D9-mf-STMI-rw64IU-70" vertex="1">
                    <mxGeometry y="92" width="120" height="26" as="geometry"/>
                </mxCell>
                <mxCell id="129" value="foundation date" style="text;align=left;verticalAlign=top;spacingLeft=4;spacingRight=4;overflow=hidden;rotatable=0;points=[[0,0.5],[1,0.5]];portConstraint=eastwest;" parent="Bw8D9-mf-STMI-rw64IU-70" vertex="1">
                    <mxGeometry y="118" width="120" height="26" as="geometry"/>
                </mxCell>
                <mxCell id="161" value="sto publication date" style="text;align=left;verticalAlign=top;spacingLeft=4;spacingRight=4;overflow=hidden;rotatable=0;points=[[0,0.5],[1,0.5]];portConstraint=eastwest;" parent="Bw8D9-mf-STMI-rw64IU-70" vertex="1">
                    <mxGeometry y="144" width="120" height="26" as="geometry"/>
                </mxCell>
                <mxCell id="Bw8D9-mf-STMI-rw64IU-82" value="are" style="endArrow=none;html=1;exitX=1.02;exitY=0.122;exitDx=0;exitDy=0;exitPerimeter=0;entryX=0;entryY=0.5;entryDx=0;entryDy=0;endFill=0;startArrow=classic;startFill=1;" parent="WIyWlLk6GJQsqaUBKTNV-1" source="zkfFHV4jXpPFQw0GAbJ--0" target="Bw8D9-mf-STMI-rw64IU-77" edge="1">
                    <mxGeometry relative="1" as="geometry">
                        <mxPoint x="660" y="530" as="sourcePoint"/>
                        <mxPoint x="820" y="530" as="targetPoint"/>
                    </mxGeometry>
                </mxCell>
                <mxCell id="Bw8D9-mf-STMI-rw64IU-83" value="are pursuit by" style="edgeLabel;resizable=0;html=1;align=center;verticalAlign=middle;" parent="Bw8D9-mf-STMI-rw64IU-82" connectable="0" vertex="1">
                    <mxGeometry relative="1" as="geometry"/>
                </mxCell>
                <mxCell id="Bw8D9-mf-STMI-rw64IU-84" value="1" style="edgeLabel;resizable=0;html=1;align=left;verticalAlign=bottom;" parent="Bw8D9-mf-STMI-rw64IU-82" connectable="0" vertex="1">
                    <mxGeometry x="-1" relative="1" as="geometry">
                        <mxPoint y="-7" as="offset"/>
                    </mxGeometry>
                </mxCell>
                <mxCell id="Bw8D9-mf-STMI-rw64IU-85" value="0..n" style="edgeLabel;resizable=0;html=1;align=right;verticalAlign=bottom;" parent="Bw8D9-mf-STMI-rw64IU-82" connectable="0" vertex="1">
                    <mxGeometry x="1" relative="1" as="geometry">
                        <mxPoint x="-15.01" y="6" as="offset"/>
                    </mxGeometry>
                </mxCell>
                <mxCell id="Bw8D9-mf-STMI-rw64IU-77" value="Studies" style="swimlane;fontStyle=2;align=center;verticalAlign=top;childLayout=stackLayout;horizontal=1;startSize=26;horizontalStack=0;resizeParent=1;resizeLast=0;collapsible=1;marginBottom=0;rounded=0;shadow=0;strokeWidth=1;" parent="WIyWlLk6GJQsqaUBKTNV-1" vertex="1">
                    <mxGeometry x="970" y="361.08" width="80" height="104" as="geometry">
                        <mxRectangle x="230" y="140" width="160" height="26" as="alternateBounds"/>
                    </mxGeometry>
                </mxCell>
                <mxCell id="Bw8D9-mf-STMI-rw64IU-78" value="begin date" style="text;align=left;verticalAlign=top;spacingLeft=4;spacingRight=4;overflow=hidden;rotatable=0;points=[[0,0.5],[1,0.5]];portConstraint=eastwest;" parent="Bw8D9-mf-STMI-rw64IU-77" vertex="1">
                    <mxGeometry y="26" width="80" height="26" as="geometry"/>
                </mxCell>
                <mxCell id="Bw8D9-mf-STMI-rw64IU-79" value="end date" style="text;align=left;verticalAlign=top;spacingLeft=4;spacingRight=4;overflow=hidden;rotatable=0;points=[[0,0.5],[1,0.5]];portConstraint=eastwest;rounded=0;shadow=0;html=0;" parent="Bw8D9-mf-STMI-rw64IU-77" vertex="1">
                    <mxGeometry y="52" width="80" height="26" as="geometry"/>
                </mxCell>
                <mxCell id="Bw8D9-mf-STMI-rw64IU-80" style="edgeStyle=elbowEdgeStyle;rounded=0;orthogonalLoop=1;jettySize=auto;elbow=vertical;html=1;exitX=0;exitY=0.5;exitDx=0;exitDy=0;" parent="Bw8D9-mf-STMI-rw64IU-77" source="Bw8D9-mf-STMI-rw64IU-79" target="Bw8D9-mf-STMI-rw64IU-79" edge="1">
                    <mxGeometry relative="1" as="geometry"/>
                </mxCell>
                <mxCell id="130" value="faculty" style="text;align=left;verticalAlign=top;spacingLeft=4;spacingRight=4;overflow=hidden;rotatable=0;points=[[0,0.5],[1,0.5]];portConstraint=eastwest;rounded=0;shadow=0;html=0;" parent="Bw8D9-mf-STMI-rw64IU-77" vertex="1">
                    <mxGeometry y="78" width="80" height="26" as="geometry"/>
                </mxCell>
                <mxCell id="Bw8D9-mf-STMI-rw64IU-97" value="" style="endArrow=classic;html=1;exitX=0.455;exitY=-0.013;exitDx=0;exitDy=0;exitPerimeter=0;" parent="WIyWlLk6GJQsqaUBKTNV-1" source="73" edge="1">
                    <mxGeometry x="0.1387" y="-42" relative="1" as="geometry">
                        <mxPoint x="780" y="600" as="sourcePoint"/>
                        <mxPoint x="780" y="600" as="targetPoint"/>
                        <mxPoint as="offset"/>
                    </mxGeometry>
                </mxCell>
                <mxCell id="Bw8D9-mf-STMI-rw64IU-98" value="undertaken by" style="edgeLabel;resizable=0;html=1;align=center;verticalAlign=middle;" parent="Bw8D9-mf-STMI-rw64IU-97" connectable="0" vertex="1">
                    <mxGeometry relative="1" as="geometry"/>
                </mxCell>
                <mxCell id="Bw8D9-mf-STMI-rw64IU-100" value="0..n" style="edgeLabel;resizable=0;html=1;align=right;verticalAlign=bottom;" parent="Bw8D9-mf-STMI-rw64IU-97" connectable="0" vertex="1">
                    <mxGeometry x="1" relative="1" as="geometry">
                        <mxPoint x="-100" y="90" as="offset"/>
                    </mxGeometry>
                </mxCell>
                <mxCell id="Bw8D9-mf-STMI-rw64IU-15" value="Geographic&#10;place type" style="swimlane;fontStyle=2;align=center;verticalAlign=top;childLayout=stackLayout;horizontal=1;startSize=40;horizontalStack=0;resizeParent=1;resizeLast=0;collapsible=1;marginBottom=0;rounded=0;shadow=0;strokeWidth=1;" parent="WIyWlLk6GJQsqaUBKTNV-1" vertex="1">
                    <mxGeometry x="530" y="198" width="110" height="102" as="geometry">
                        <mxRectangle x="230" y="140" width="160" height="26" as="alternateBounds"/>
                    </mxGeometry>
                </mxCell>
                <mxCell id="Bw8D9-mf-STMI-rw64IU-16" value="name" style="text;align=left;verticalAlign=top;spacingLeft=4;spacingRight=4;overflow=hidden;rotatable=0;points=[[0,0.5],[1,0.5]];portConstraint=eastwest;" parent="Bw8D9-mf-STMI-rw64IU-15" vertex="1">
                    <mxGeometry y="40" width="110" height="26" as="geometry"/>
                </mxCell>
                <mxCell id="Bw8D9-mf-STMI-rw64IU-37" value="" style="endArrow=classic;html=1;entryX=0.5;entryY=1;entryDx=0;entryDy=0;exitX=0.994;exitY=1.122;exitDx=0;exitDy=0;exitPerimeter=0;" parent="Bw8D9-mf-STMI-rw64IU-15" source="Bw8D9-mf-STMI-rw64IU-17" target="Bw8D9-mf-STMI-rw64IU-15" edge="1">
                    <mxGeometry relative="1" as="geometry">
                        <mxPoint x="160" y="80" as="sourcePoint"/>
                        <mxPoint x="-30" y="140" as="targetPoint"/>
                        <Array as="points">
                            <mxPoint x="170" y="95"/>
                            <mxPoint x="170" y="202"/>
                            <mxPoint x="55" y="200"/>
                        </Array>
                    </mxGeometry>
                </mxCell>
                <mxCell id="Bw8D9-mf-STMI-rw64IU-39" value="1" style="edgeLabel;html=1;align=center;verticalAlign=middle;resizable=0;points=[];" parent="Bw8D9-mf-STMI-rw64IU-37" vertex="1" connectable="0">
                    <mxGeometry x="0.8885" y="-1" relative="1" as="geometry">
                        <mxPoint x="-14" y="-11.69" as="offset"/>
                    </mxGeometry>
                </mxCell>
                <mxCell id="Bw8D9-mf-STMI-rw64IU-38" value="specializes place type" style="edgeLabel;resizable=0;html=1;align=center;verticalAlign=middle;" parent="Bw8D9-mf-STMI-rw64IU-37" connectable="0" vertex="1">
                    <mxGeometry relative="1" as="geometry">
                        <mxPoint x="-70" y="-1.0099999999999998" as="offset"/>
                    </mxGeometry>
                </mxCell>
                <mxCell id="Bw8D9-mf-STMI-rw64IU-40" value="0..n" style="edgeLabel;html=1;align=center;verticalAlign=middle;resizable=0;points=[];" parent="Bw8D9-mf-STMI-rw64IU-37" vertex="1" connectable="0">
                    <mxGeometry x="-0.8808" y="-1" relative="1" as="geometry">
                        <mxPoint x="-0.17999999999999972" y="-11" as="offset"/>
                    </mxGeometry>
                </mxCell>
                <mxCell id="Bw8D9-mf-STMI-rw64IU-17" value="definition" style="text;align=left;verticalAlign=top;spacingLeft=4;spacingRight=4;overflow=hidden;rotatable=0;points=[[0,0.5],[1,0.5]];portConstraint=eastwest;rounded=0;shadow=0;html=0;" parent="Bw8D9-mf-STMI-rw64IU-15" vertex="1">
                    <mxGeometry y="66" width="110" height="26" as="geometry"/>
                </mxCell>
                <mxCell id="Bw8D9-mf-STMI-rw64IU-130" value="" style="endArrow=classic;html=1;entryX=0.5;entryY=0;entryDx=0;entryDy=0;exitX=0.449;exitY=0.001;exitDx=0;exitDy=0;exitPerimeter=0;" parent="WIyWlLk6GJQsqaUBKTNV-1" source="Bw8D9-mf-STMI-rw64IU-128" target="Bw8D9-mf-STMI-rw64IU-12" edge="1">
                    <mxGeometry relative="1" as="geometry">
                        <mxPoint x="1350" y="264" as="sourcePoint"/>
                        <mxPoint x="1160" y="324" as="targetPoint"/>
                        <Array as="points">
                            <mxPoint x="1400" y="380"/>
                            <mxPoint x="1400" y="300"/>
                            <mxPoint x="1400" y="160"/>
                            <mxPoint x="340" y="160"/>
                        </Array>
                    </mxGeometry>
                </mxCell>
                <mxCell id="Bw8D9-mf-STMI-rw64IU-131" value="is located in" style="edgeLabel;resizable=0;html=1;align=center;verticalAlign=middle;" parent="Bw8D9-mf-STMI-rw64IU-130" connectable="0" vertex="1">
                    <mxGeometry relative="1" as="geometry">
                        <mxPoint x="-70" y="-1.0099999999999998" as="offset"/>
                    </mxGeometry>
                </mxCell>
                <mxCell id="Bw8D9-mf-STMI-rw64IU-132" value="0..n" style="edgeLabel;html=1;align=center;verticalAlign=middle;resizable=0;points=[];" parent="Bw8D9-mf-STMI-rw64IU-130" vertex="1" connectable="0">
                    <mxGeometry x="-0.8808" y="-1" relative="1" as="geometry">
                        <mxPoint x="24" y="53.45" as="offset"/>
                    </mxGeometry>
                </mxCell>
                <mxCell id="Bw8D9-mf-STMI-rw64IU-133" value="1" style="edgeLabel;html=1;align=center;verticalAlign=middle;resizable=0;points=[];" parent="Bw8D9-mf-STMI-rw64IU-130" vertex="1" connectable="0">
                    <mxGeometry x="0.8885" y="-1" relative="1" as="geometry">
                        <mxPoint x="-26" y="31" as="offset"/>
                    </mxGeometry>
                </mxCell>
                <mxCell id="Bw8D9-mf-STMI-rw64IU-128" value="Organisation" style="swimlane;fontStyle=2;align=center;verticalAlign=top;childLayout=stackLayout;horizontal=1;startSize=40;horizontalStack=0;resizeParent=1;resizeLast=0;collapsible=1;marginBottom=0;rounded=0;shadow=0;strokeWidth=1;" parent="WIyWlLk6GJQsqaUBKTNV-1" vertex="1">
                    <mxGeometry x="1350" y="480" width="110" height="144" as="geometry">
                        <mxRectangle x="230" y="140" width="160" height="26" as="alternateBounds"/>
                    </mxGeometry>
                </mxCell>
                <mxCell id="Bw8D9-mf-STMI-rw64IU-129" value="name" style="text;align=left;verticalAlign=top;spacingLeft=4;spacingRight=4;overflow=hidden;rotatable=0;points=[[0,0.5],[1,0.5]];portConstraint=eastwest;" parent="Bw8D9-mf-STMI-rw64IU-128" vertex="1">
                    <mxGeometry y="40" width="110" height="26" as="geometry"/>
                </mxCell>
                <mxCell id="Bw8D9-mf-STMI-rw64IU-134" value="acronym" style="text;align=left;verticalAlign=top;spacingLeft=4;spacingRight=4;overflow=hidden;rotatable=0;points=[[0,0.5],[1,0.5]];portConstraint=eastwest;rounded=0;shadow=0;html=0;" parent="Bw8D9-mf-STMI-rw64IU-128" vertex="1">
                    <mxGeometry y="66" width="110" height="26" as="geometry"/>
                </mxCell>
                <mxCell id="122" value="type" style="text;align=left;verticalAlign=top;spacingLeft=4;spacingRight=4;overflow=hidden;rotatable=0;points=[[0,0.5],[1,0.5]];portConstraint=eastwest;rounded=0;shadow=0;html=0;" parent="Bw8D9-mf-STMI-rw64IU-128" vertex="1">
                    <mxGeometry y="92" width="110" height="26" as="geometry"/>
                </mxCell>
                <mxCell id="132" value="foundation date" style="text;align=left;verticalAlign=top;spacingLeft=4;spacingRight=4;overflow=hidden;rotatable=0;points=[[0,0.5],[1,0.5]];portConstraint=eastwest;" parent="Bw8D9-mf-STMI-rw64IU-128" vertex="1">
                    <mxGeometry y="118" width="110" height="26" as="geometry"/>
                </mxCell>
                <mxCell id="Bw8D9-mf-STMI-rw64IU-135" value="are pursuit in" style="endArrow=classic;html=1;entryX=0;entryY=0.25;entryDx=0;entryDy=0;exitX=1.003;exitY=1.17;exitDx=0;exitDy=0;exitPerimeter=0;" parent="WIyWlLk6GJQsqaUBKTNV-1" source="Bw8D9-mf-STMI-rw64IU-78" target="Bw8D9-mf-STMI-rw64IU-128" edge="1">
                    <mxGeometry relative="1" as="geometry">
                        <mxPoint x="1050" y="400" as="sourcePoint"/>
                        <mxPoint x="1100" y="635" as="targetPoint"/>
                    </mxGeometry>
                </mxCell>
                <mxCell id="Bw8D9-mf-STMI-rw64IU-137" value="0..n" style="edgeLabel;resizable=0;html=1;align=left;verticalAlign=bottom;" parent="Bw8D9-mf-STMI-rw64IU-135" connectable="0" vertex="1">
                    <mxGeometry x="-1" relative="1" as="geometry">
                        <mxPoint as="offset"/>
                    </mxGeometry>
                </mxCell>
                <mxCell id="Bw8D9-mf-STMI-rw64IU-138" value="0..1" style="edgeLabel;resizable=0;html=1;align=right;verticalAlign=bottom;" parent="Bw8D9-mf-STMI-rw64IU-135" connectable="0" vertex="1">
                    <mxGeometry x="1" relative="1" as="geometry">
                        <mxPoint x="-11" y="-21" as="offset"/>
                    </mxGeometry>
                </mxCell>
                <mxCell id="20" value="1" style="edgeLabel;resizable=0;html=1;align=left;verticalAlign=bottom;" parent="WIyWlLk6GJQsqaUBKTNV-1" connectable="0" vertex="1">
                    <mxGeometry x="760" y="620" as="geometry"/>
                </mxCell>
                <mxCell id="21" value="0..n" style="edgeLabel;resizable=0;html=1;align=right;verticalAlign=bottom;" parent="WIyWlLk6GJQsqaUBKTNV-1" connectable="0" vertex="1">
                    <mxGeometry x="930.0000000000002" y="700" as="geometry">
                        <mxPoint x="-16" y="-22" as="offset"/>
                    </mxGeometry>
                </mxCell>
                <mxCell id="25" value="was the base of" style="endArrow=classic;html=1;edgeStyle=orthogonalEdgeStyle;rounded=1;" parent="WIyWlLk6GJQsqaUBKTNV-1" edge="1">
                    <mxGeometry width="50" height="50" relative="1" as="geometry">
                        <mxPoint x="200" y="832" as="sourcePoint"/>
                        <mxPoint x="620" y="980" as="targetPoint"/>
                        <Array as="points">
                            <mxPoint x="200" y="832"/>
                            <mxPoint x="200" y="980"/>
                        </Array>
                    </mxGeometry>
                </mxCell>
                <mxCell id="26" value="1" style="resizable=0;align=left;verticalAlign=bottom;labelBackgroundColor=none;fontSize=12;" parent="WIyWlLk6GJQsqaUBKTNV-1" connectable="0" vertex="1">
                    <mxGeometry x="550.1400000000001" y="549.6700000000001" as="geometry">
                        <mxPoint x="-287" y="-322" as="offset"/>
                    </mxGeometry>
                </mxCell>
                <mxCell id="27" value="1" style="edgeLabel;resizable=0;html=1;align=left;verticalAlign=bottom;" parent="WIyWlLk6GJQsqaUBKTNV-1" connectable="0" vertex="1">
                    <mxGeometry x="369.9999999999998" y="285" as="geometry">
                        <mxPoint x="291" y="597" as="offset"/>
                    </mxGeometry>
                </mxCell>
                <mxCell id="28" value="&lt;i&gt;Bibliographic object&lt;/i&gt;" style="swimlane;fontStyle=0;childLayout=stackLayout;horizontal=1;startSize=30;horizontalStack=0;resizeParent=1;resizeParentMax=0;resizeLast=0;collapsible=1;marginBottom=0;whiteSpace=wrap;html=1;" parent="WIyWlLk6GJQsqaUBKTNV-1" vertex="1">
                    <mxGeometry x="1100" y="725" width="140" height="120" as="geometry"/>
                </mxCell>
                <mxCell id="29" value="&lt;span style=&quot;background-color: initial;&quot;&gt;title&lt;/span&gt;" style="text;strokeColor=none;fillColor=none;align=left;verticalAlign=middle;spacingLeft=4;spacingRight=4;overflow=hidden;points=[[0,0.5],[1,0.5]];portConstraint=eastwest;rotatable=0;whiteSpace=wrap;html=1;" parent="28" vertex="1">
                    <mxGeometry y="30" width="140" height="30" as="geometry"/>
                </mxCell>
                <mxCell id="57" value="type" style="text;strokeColor=none;fillColor=none;align=left;verticalAlign=middle;spacingLeft=4;spacingRight=4;overflow=hidden;points=[[0,0.5],[1,0.5]];portConstraint=eastwest;rotatable=0;whiteSpace=wrap;html=1;" parent="28" vertex="1">
                    <mxGeometry y="60" width="140" height="30" as="geometry"/>
                </mxCell>
                <mxCell id="114" value="date of publication" style="text;strokeColor=none;fillColor=none;align=left;verticalAlign=middle;spacingLeft=4;spacingRight=4;overflow=hidden;points=[[0,0.5],[1,0.5]];portConstraint=eastwest;rotatable=0;whiteSpace=wrap;html=1;" parent="28" vertex="1">
                    <mxGeometry y="90" width="140" height="30" as="geometry"/>
                </mxCell>
                <mxCell id="32" value="engage" style="endArrow=classic;html=1;exitX=0.25;exitY=0;exitDx=0;exitDy=0;" parent="WIyWlLk6GJQsqaUBKTNV-1" source="108" edge="1">
                    <mxGeometry width="50" height="50" relative="1" as="geometry">
                        <mxPoint x="790" y="600" as="sourcePoint"/>
                        <mxPoint x="830" y="600" as="targetPoint"/>
                    </mxGeometry>
                </mxCell>
                <mxCell id="33" value="1" style="resizable=0;align=left;verticalAlign=bottom;labelBackgroundColor=none;fontSize=12;" parent="WIyWlLk6GJQsqaUBKTNV-1" connectable="0" vertex="1">
                    <mxGeometry x="804.98" y="465.08400000000006" as="geometry">
                        <mxPoint x="9" y="152" as="offset"/>
                    </mxGeometry>
                </mxCell>
                <mxCell id="34" value="0...n" style="resizable=0;align=right;verticalAlign=bottom;labelBackgroundColor=none;fontSize=12;" parent="WIyWlLk6GJQsqaUBKTNV-1" connectable="0" vertex="1">
                    <mxGeometry x="719.9999999999999" y="480.0000000000001" as="geometry">
                        <mxPoint x="297" y="238" as="offset"/>
                    </mxGeometry>
                </mxCell>
                <mxCell id="39" value="was published by" style="endArrow=classic;html=1;entryX=0.065;entryY=1.005;entryDx=0;entryDy=0;exitX=1;exitY=0.5;exitDx=0;exitDy=0;entryPerimeter=0;" parent="WIyWlLk6GJQsqaUBKTNV-1" source="29" target="132" edge="1">
                    <mxGeometry width="50" height="50" relative="1" as="geometry">
                        <mxPoint x="990" y="860" as="sourcePoint"/>
                        <mxPoint x="1362.65" y="647.1179999999999" as="targetPoint"/>
                        <Array as="points"/>
                    </mxGeometry>
                </mxCell>
                <mxCell id="70" value="0...n" style="text;html=1;strokeColor=none;fillColor=none;align=center;verticalAlign=middle;whiteSpace=wrap;rounded=0;" parent="WIyWlLk6GJQsqaUBKTNV-1" vertex="1">
                    <mxGeometry x="1230" y="760" width="60" height="30" as="geometry"/>
                </mxCell>
                <mxCell id="73" value="&lt;i&gt;Contribution&lt;/i&gt;" style="swimlane;fontStyle=0;childLayout=stackLayout;horizontal=1;startSize=30;horizontalStack=0;resizeParent=1;resizeParentMax=0;resizeLast=0;collapsible=1;marginBottom=0;whiteSpace=wrap;html=1;" parent="WIyWlLk6GJQsqaUBKTNV-1" vertex="1">
                    <mxGeometry x="630" y="700" width="100" height="90" as="geometry"/>
                </mxCell>
                <mxCell id="74" value="begin date" style="text;strokeColor=none;fillColor=none;align=left;verticalAlign=middle;spacingLeft=4;spacingRight=4;overflow=hidden;points=[[0,0.5],[1,0.5]];portConstraint=eastwest;rotatable=0;whiteSpace=wrap;html=1;" parent="73" vertex="1">
                    <mxGeometry y="30" width="100" height="30" as="geometry"/>
                </mxCell>
                <mxCell id="75" value="end date" style="text;strokeColor=none;fillColor=none;align=left;verticalAlign=middle;spacingLeft=4;spacingRight=4;overflow=hidden;points=[[0,0.5],[1,0.5]];portConstraint=eastwest;rotatable=0;whiteSpace=wrap;html=1;" parent="73" vertex="1">
                    <mxGeometry y="60" width="100" height="30" as="geometry"/>
                </mxCell>
                <mxCell id="77" value="appeared on" style="endArrow=classic;html=1;exitX=0.498;exitY=1.007;exitDx=0;exitDy=0;exitPerimeter=0;entryX=0.5;entryY=0;entryDx=0;entryDy=0;" parent="WIyWlLk6GJQsqaUBKTNV-1" source="75" target="Bw8D9-mf-STMI-rw64IU-70" edge="1">
                    <mxGeometry width="50" height="50" relative="1" as="geometry">
                        <mxPoint x="790" y="650" as="sourcePoint"/>
                        <mxPoint x="840" y="600" as="targetPoint"/>
                    </mxGeometry>
                </mxCell>
                <mxCell id="78" value="0..n" style="text;html=1;strokeColor=none;fillColor=none;align=center;verticalAlign=middle;whiteSpace=wrap;rounded=0;" parent="WIyWlLk6GJQsqaUBKTNV-1" vertex="1">
                    <mxGeometry x="640" y="790" width="50" height="30" as="geometry"/>
                </mxCell>
                <mxCell id="81" value="0...n" style="text;html=1;strokeColor=none;fillColor=none;align=center;verticalAlign=middle;whiteSpace=wrap;rounded=0;" parent="WIyWlLk6GJQsqaUBKTNV-1" vertex="1">
                    <mxGeometry x="1120" y="980" width="60" height="30" as="geometry"/>
                </mxCell>
                <mxCell id="82" value="0...n" style="text;html=1;strokeColor=none;fillColor=none;align=center;verticalAlign=middle;whiteSpace=wrap;rounded=0;" parent="WIyWlLk6GJQsqaUBKTNV-1" vertex="1">
                    <mxGeometry x="920" y="533" width="60" height="30" as="geometry"/>
                </mxCell>
                <mxCell id="89" value="had place in" style="edgeStyle=none;html=1;entryX=0;entryY=0.5;entryDx=0;entryDy=0;exitX=0.409;exitY=0.003;exitDx=0;exitDy=0;exitPerimeter=0;" parent="WIyWlLk6GJQsqaUBKTNV-1" source="84" target="Bw8D9-mf-STMI-rw64IU-13" edge="1">
                    <mxGeometry relative="1" as="geometry">
                        <mxPoint x="140" y="880" as="sourcePoint"/>
                        <Array as="points">
                            <mxPoint x="200" y="239"/>
                        </Array>
                    </mxGeometry>
                </mxCell>
                <mxCell id="84" value="&lt;i&gt;Location&lt;/i&gt;" style="swimlane;fontStyle=0;childLayout=stackLayout;horizontal=1;startSize=30;horizontalStack=0;resizeParent=1;resizeParentMax=0;resizeLast=0;collapsible=1;marginBottom=0;whiteSpace=wrap;html=1;" parent="WIyWlLk6GJQsqaUBKTNV-1" vertex="1">
                    <mxGeometry x="140" y="740" width="140" height="90" as="geometry"/>
                </mxCell>
                <mxCell id="85" value="begin date" style="text;strokeColor=none;fillColor=none;align=left;verticalAlign=middle;spacingLeft=4;spacingRight=4;overflow=hidden;points=[[0,0.5],[1,0.5]];portConstraint=eastwest;rotatable=0;whiteSpace=wrap;html=1;" parent="84" vertex="1">
                    <mxGeometry y="30" width="140" height="30" as="geometry"/>
                </mxCell>
                <mxCell id="86" value="end date" style="text;strokeColor=none;fillColor=none;align=left;verticalAlign=middle;spacingLeft=4;spacingRight=4;overflow=hidden;points=[[0,0.5],[1,0.5]];portConstraint=eastwest;rotatable=0;whiteSpace=wrap;html=1;" parent="84" vertex="1">
                    <mxGeometry y="60" width="140" height="30" as="geometry"/>
                </mxCell>
                <mxCell id="96" value="&lt;i&gt;Reference&lt;/i&gt;" style="swimlane;fontStyle=0;childLayout=stackLayout;horizontal=1;startSize=30;horizontalStack=0;resizeParent=1;resizeParentMax=0;resizeLast=0;collapsible=1;marginBottom=0;whiteSpace=wrap;html=1;" parent="WIyWlLk6GJQsqaUBKTNV-1" vertex="1">
                    <mxGeometry x="1180" y="920" width="100" height="120" as="geometry"/>
                </mxCell>
                <mxCell id="97" value="begin date" style="text;strokeColor=none;fillColor=none;align=left;verticalAlign=middle;spacingLeft=4;spacingRight=4;overflow=hidden;points=[[0,0.5],[1,0.5]];portConstraint=eastwest;rotatable=0;whiteSpace=wrap;html=1;" parent="96" vertex="1">
                    <mxGeometry y="30" width="100" height="30" as="geometry"/>
                </mxCell>
                <mxCell id="98" value="end date" style="text;strokeColor=none;fillColor=none;align=left;verticalAlign=middle;spacingLeft=4;spacingRight=4;overflow=hidden;points=[[0,0.5],[1,0.5]];portConstraint=eastwest;rotatable=0;whiteSpace=wrap;html=1;" parent="96" vertex="1">
                    <mxGeometry y="60" width="100" height="30" as="geometry"/>
                </mxCell>
                <mxCell id="99" value="notes" style="text;strokeColor=none;fillColor=none;align=left;verticalAlign=middle;spacingLeft=4;spacingRight=4;overflow=hidden;points=[[0,0.5],[1,0.5]];portConstraint=eastwest;rotatable=0;whiteSpace=wrap;html=1;" parent="96" vertex="1">
                    <mxGeometry y="90" width="100" height="30" as="geometry"/>
                </mxCell>
                <mxCell id="103" value="1" style="text;html=1;strokeColor=none;fillColor=none;align=center;verticalAlign=middle;whiteSpace=wrap;rounded=0;" parent="WIyWlLk6GJQsqaUBKTNV-1" vertex="1">
                    <mxGeometry x="1310" y="570" width="30" height="30" as="geometry"/>
                </mxCell>
                <mxCell id="105" value="0...1" style="text;html=1;strokeColor=none;fillColor=none;align=center;verticalAlign=middle;whiteSpace=wrap;rounded=0;" parent="WIyWlLk6GJQsqaUBKTNV-1" vertex="1">
                    <mxGeometry x="1300" y="620" width="50" height="30" as="geometry"/>
                </mxCell>
                <mxCell id="106" value="1" style="text;html=1;strokeColor=none;fillColor=none;align=center;verticalAlign=middle;whiteSpace=wrap;rounded=0;" parent="WIyWlLk6GJQsqaUBKTNV-1" vertex="1">
                    <mxGeometry x="740" y="950" width="20" height="30" as="geometry"/>
                </mxCell>
                <mxCell id="108" value="&lt;i&gt;Implication&lt;/i&gt;" style="swimlane;fontStyle=0;childLayout=stackLayout;horizontal=1;startSize=30;horizontalStack=0;resizeParent=1;resizeParentMax=0;resizeLast=0;collapsible=1;marginBottom=0;whiteSpace=wrap;html=1;" parent="WIyWlLk6GJQsqaUBKTNV-1" vertex="1">
                    <mxGeometry x="860" y="680" width="120" height="60" as="geometry"/>
                </mxCell>
                <mxCell id="109" value="type of relationship" style="text;strokeColor=none;fillColor=none;align=left;verticalAlign=middle;spacingLeft=4;spacingRight=4;overflow=hidden;points=[[0,0.5],[1,0.5]];portConstraint=eastwest;rotatable=0;whiteSpace=wrap;html=1;" parent="108" vertex="1">
                    <mxGeometry y="30" width="120" height="30" as="geometry"/>
                </mxCell>
                <mxCell id="115" value="refers to" style="edgeStyle=none;html=1;exitX=1;exitY=0.074;exitDx=0;exitDy=0;entryX=0;entryY=0.5;entryDx=0;entryDy=0;exitPerimeter=0;" parent="WIyWlLk6GJQsqaUBKTNV-1" source="109" target="29" edge="1">
                    <mxGeometry relative="1" as="geometry"/>
                </mxCell>
                <mxCell id="116" value="0...n" style="text;html=1;strokeColor=none;fillColor=none;align=center;verticalAlign=middle;whiteSpace=wrap;rounded=0;" parent="WIyWlLk6GJQsqaUBKTNV-1" vertex="1">
                    <mxGeometry x="1280" y="890" width="50" height="30" as="geometry"/>
                </mxCell>
                <mxCell id="117" value="1" style="text;html=1;strokeColor=none;fillColor=none;align=center;verticalAlign=middle;whiteSpace=wrap;rounded=0;" parent="WIyWlLk6GJQsqaUBKTNV-1" vertex="1">
                    <mxGeometry x="1060" y="770" width="40" height="30" as="geometry"/>
                </mxCell>
                <mxCell id="136" value="&lt;i&gt;Membership&lt;/i&gt;" style="swimlane;fontStyle=0;childLayout=stackLayout;horizontal=1;startSize=30;horizontalStack=0;resizeParent=1;resizeParentMax=0;resizeLast=0;collapsible=1;marginBottom=0;whiteSpace=wrap;html=1;" parent="WIyWlLk6GJQsqaUBKTNV-1" vertex="1">
                    <mxGeometry x="967.5" y="515" width="85" height="90" as="geometry"/>
                </mxCell>
                <mxCell id="137" value="begin date" style="text;strokeColor=none;fillColor=none;align=left;verticalAlign=middle;spacingLeft=4;spacingRight=4;overflow=hidden;points=[[0,0.5],[1,0.5]];portConstraint=eastwest;rotatable=0;whiteSpace=wrap;html=1;" parent="136" vertex="1">
                    <mxGeometry y="30" width="85" height="30" as="geometry"/>
                </mxCell>
                <mxCell id="138" value="end date" style="text;strokeColor=none;fillColor=none;align=left;verticalAlign=middle;spacingLeft=4;spacingRight=4;overflow=hidden;points=[[0,0.5],[1,0.5]];portConstraint=eastwest;rotatable=0;whiteSpace=wrap;html=1;" parent="136" vertex="1">
                    <mxGeometry y="60" width="85" height="30" as="geometry"/>
                </mxCell>
                <mxCell id="139" value="engaged by" style="endArrow=classic;html=1;entryX=1;entryY=0.5;entryDx=0;entryDy=0;exitX=0;exitY=0.5;exitDx=0;exitDy=0;" parent="WIyWlLk6GJQsqaUBKTNV-1" source="137" target="zkfFHV4jXpPFQw0GAbJ--3" edge="1">
                    <mxGeometry width="50" height="50" relative="1" as="geometry">
                        <mxPoint x="950" y="590" as="sourcePoint"/>
                        <mxPoint x="999.6200000000001" y="511.7700000000001" as="targetPoint"/>
                    </mxGeometry>
                </mxCell>
                <mxCell id="141" value="militated in" style="endArrow=classic;html=1;exitX=1.008;exitY=0.73;exitDx=0;exitDy=0;exitPerimeter=0;" parent="WIyWlLk6GJQsqaUBKTNV-1" source="137" edge="1">
                    <mxGeometry width="50" height="50" relative="1" as="geometry">
                        <mxPoint x="1060" y="630" as="sourcePoint"/>
                        <mxPoint x="1350" y="600" as="targetPoint"/>
                    </mxGeometry>
                </mxCell>
                <mxCell id="142" value="is linked with" style="edgeStyle=none;html=1;startArrow=none;entryX=0.408;entryY=1.019;entryDx=0;entryDy=0;entryPerimeter=0;exitX=0.75;exitY=0;exitDx=0;exitDy=0;" parent="WIyWlLk6GJQsqaUBKTNV-1" source="96" target="132" edge="1">
                    <mxGeometry relative="1" as="geometry">
                        <mxPoint x="1280" y="990" as="sourcePoint"/>
                        <mxPoint x="1409.9499999999998" y="650.0039999999999" as="targetPoint"/>
                    </mxGeometry>
                </mxCell>
                <mxCell id="143" value="0...n" style="text;html=1;strokeColor=none;fillColor=none;align=center;verticalAlign=middle;whiteSpace=wrap;rounded=0;" parent="WIyWlLk6GJQsqaUBKTNV-1" vertex="1">
                    <mxGeometry x="1060" y="536" width="40" height="30" as="geometry"/>
                </mxCell>
                <mxCell id="148" value="exists in" style="endArrow=classic;html=1;entryX=0;entryY=1;entryDx=0;entryDy=0;" parent="WIyWlLk6GJQsqaUBKTNV-1" target="106" edge="1">
                    <mxGeometry x="0.3898" y="16" width="50" height="50" relative="1" as="geometry">
                        <mxPoint x="1180" y="980" as="sourcePoint"/>
                        <mxPoint x="1180" y="980" as="targetPoint"/>
                        <mxPoint as="offset"/>
                    </mxGeometry>
                </mxCell>
                <mxCell id="157" value="n" style="text;html=1;align=center;verticalAlign=middle;resizable=0;points=[];autosize=1;strokeColor=none;fillColor=none;" parent="WIyWlLk6GJQsqaUBKTNV-1" vertex="1">
                    <mxGeometry x="170" y="700" width="30" height="30" as="geometry"/>
                </mxCell>
                <mxCell id="162" value="&lt;i&gt;Alignement&lt;/i&gt;" style="swimlane;fontStyle=0;childLayout=stackLayout;horizontal=1;startSize=30;horizontalStack=0;resizeParent=1;resizeParentMax=0;resizeLast=0;collapsible=1;marginBottom=0;whiteSpace=wrap;html=1;" parent="WIyWlLk6GJQsqaUBKTNV-1" vertex="1">
                    <mxGeometry x="1520" y="715" width="90" height="120" as="geometry"/>
                </mxCell>
                <mxCell id="163" value="description" style="text;strokeColor=none;fillColor=none;align=left;verticalAlign=middle;spacingLeft=4;spacingRight=4;overflow=hidden;points=[[0,0.5],[1,0.5]];portConstraint=eastwest;rotatable=0;whiteSpace=wrap;html=1;" parent="162" vertex="1">
                    <mxGeometry y="30" width="90" height="30" as="geometry"/>
                </mxCell>
                <mxCell id="164" value="begin date" style="text;strokeColor=none;fillColor=none;align=left;verticalAlign=middle;spacingLeft=4;spacingRight=4;overflow=hidden;points=[[0,0.5],[1,0.5]];portConstraint=eastwest;rotatable=0;whiteSpace=wrap;html=1;" parent="162" vertex="1">
                    <mxGeometry y="60" width="90" height="30" as="geometry"/>
                </mxCell>
                <mxCell id="165" value="end date" style="text;strokeColor=none;fillColor=none;align=left;verticalAlign=middle;spacingLeft=4;spacingRight=4;overflow=hidden;points=[[0,0.5],[1,0.5]];portConstraint=eastwest;rotatable=0;whiteSpace=wrap;html=1;" parent="162" vertex="1">
                    <mxGeometry y="90" width="90" height="30" as="geometry"/>
                </mxCell>
                <mxCell id="166" value="1" style="text;html=1;strokeColor=none;fillColor=none;align=center;verticalAlign=middle;whiteSpace=wrap;rounded=0;" parent="WIyWlLk6GJQsqaUBKTNV-1" vertex="1">
                    <mxGeometry x="1375" y="630" width="60" height="30" as="geometry"/>
                </mxCell>
                <mxCell id="167" value="positioning of" style="endArrow=classic;html=1;exitX=0;exitY=0.5;exitDx=0;exitDy=0;entryX=0.834;entryY=1.166;entryDx=0;entryDy=0;entryPerimeter=0;" parent="WIyWlLk6GJQsqaUBKTNV-1" source="163" edge="1" target="132">
                    <mxGeometry width="50" height="50" relative="1" as="geometry">
                        <mxPoint x="960" y="720" as="sourcePoint"/>
                        <mxPoint x="1460" y="650" as="targetPoint"/>
                    </mxGeometry>
                </mxCell>
                <mxCell id="168" value="0..n" style="edgeLabel;html=1;align=center;verticalAlign=middle;resizable=0;points=[];" parent="WIyWlLk6GJQsqaUBKTNV-1" vertex="1" connectable="0">
                    <mxGeometry x="1434.901502372451" y="459.62764701130186" as="geometry">
                        <mxPoint x="73" y="309" as="offset"/>
                    </mxGeometry>
                </mxCell>
                <mxCell id="169" value="1" style="text;html=1;strokeColor=none;fillColor=none;align=center;verticalAlign=middle;whiteSpace=wrap;rounded=0;" parent="WIyWlLk6GJQsqaUBKTNV-1" vertex="1">
                    <mxGeometry x="1460" y="630" width="30" height="30" as="geometry"/>
                </mxCell>
                <mxCell id="170" value="1" style="edgeLabel;resizable=0;html=1;align=left;verticalAlign=bottom;" parent="WIyWlLk6GJQsqaUBKTNV-1" connectable="0" vertex="1">
                    <mxGeometry x="862.4000000000001" y="479.836" as="geometry">
                        <mxPoint x="-9" y="67" as="offset"/>
                    </mxGeometry>
                </mxCell>
                <mxCell id="171" value="1" style="text;html=1;strokeColor=none;fillColor=none;align=center;verticalAlign=middle;whiteSpace=wrap;rounded=0;" parent="WIyWlLk6GJQsqaUBKTNV-1" vertex="1">
                    <mxGeometry x="590" y="955" width="19.86" height="20" as="geometry"/>
                </mxCell>
                <mxCell id="172" value="n" style="text;html=1;align=center;verticalAlign=middle;resizable=0;points=[];autosize=1;strokeColor=none;fillColor=none;" parent="WIyWlLk6GJQsqaUBKTNV-1" vertex="1">
                    <mxGeometry x="220" y="835" width="30" height="30" as="geometry"/>
                </mxCell>
            </root>
        </mxGraphModel>
    </diagram>
</mxfile>